# This file uses centimeters as units for non-parametric coordinates.

mtllib Back.mtl
g Backs:default1
v -0.024028 0.124512 -0.002302
v -0.024028 -0.124512 -0.002302
v -0.024028 0.124512 0.002302
v -0.024028 -0.124512 0.002302
v 0.024028 0.124512 0.002302
v 0.024028 -0.124512 0.002302
v 0.024028 0.124512 -0.002302
v 0.024028 -0.124512 -0.002302
vt 0.377222 0.008889
vt 0.622778 0.008889
vt 0.377222 0.254444
vt 0.622778 0.254444
vt 0.377222 0.500000
vt 0.622778 0.500000
vt 0.377222 0.745556
vt 0.622778 0.745556
vt 0.377222 0.991111
vt 0.622778 0.991111
vt 0.868333 0.008889
vt 0.868333 0.254444
vt 0.131667 0.008889
vt 0.131667 0.254444
vn -1.000000 0.000000 -0.000000
vn -1.000000 0.000000 -0.000000
vn -1.000000 0.000000 -0.000000
vn -1.000000 0.000000 -0.000000
vn -1.000000 0.000000 -0.000000
vn -1.000000 0.000000 -0.000000
vn 0.000000 0.000000 1.000000
vn 0.000000 0.000000 1.000000
vn 0.000000 0.000000 1.000000
vn 0.000000 0.000000 1.000000
vn 0.000000 0.000000 1.000000
vn 0.000000 0.000000 1.000000
vn 1.000000 -0.000000 0.000000
vn 1.000000 -0.000000 0.000000
vn 1.000000 -0.000000 0.000000
vn 1.000000 -0.000000 0.000000
vn 1.000000 -0.000000 0.000000
vn 1.000000 -0.000000 0.000000
vn 0.000000 0.000000 -1.000000
vn 0.000000 0.000000 -1.000000
vn 0.000000 0.000000 -1.000000
vn 0.000000 0.000000 -1.000000
vn 0.000000 0.000000 -1.000000
vn 0.000000 0.000000 -1.000000
vn 0.000000 -1.000000 0.000000
vn 0.000000 -1.000000 0.000000
vn 0.000000 -1.000000 0.000000
vn 0.000000 -1.000000 0.000000
vn 0.000000 -1.000000 0.000000
vn 0.000000 -1.000000 0.000000
vn 0.000000 1.000000 0.000000
vn 0.000000 1.000000 0.000000
vn 0.000000 1.000000 0.000000
vn 0.000000 1.000000 0.000000
vn 0.000000 1.000000 0.000000
vn 0.000000 1.000000 0.000000
s off
g Backs:Door1 Backs:EntDoors Backs:SecHand Backs:pCube1 Backs:polySurface1
usemtl Backs:blinn16SG
f 1/1/1 2/2/2 3/3/3
f 3/3/4 2/2/5 4/4/6
f 3/3/7 4/4/8 5/5/9
f 5/5/10 4/4/11 6/6/12
f 5/5/13 6/6/14 7/7/15
f 7/7/16 6/6/17 8/8/18
f 7/7/19 8/8/20 1/9/21
f 1/9/22 8/8/23 2/10/24
f 2/2/25 8/11/26 4/4/27
f 4/4/28 8/11/29 6/12/30
f 7/13/31 1/1/32 5/14/33
f 5/14/34 1/1/35 3/3/36
