# This file uses centimeters as units for non-parametric coordinates.

mtllib Backs.mtl
g default
v -6.840781 0.311904 -7.980218
v -6.840781 0.062880 -7.980218
v -6.840781 0.311904 -7.975613
v -6.840781 0.062880 -7.975613
v -6.792725 0.311904 -7.975613
v -6.792725 0.062880 -7.975613
v -6.792725 0.311904 -7.980218
v -6.792725 0.062880 -7.980218
vt 0.377222 0.008889
vt 0.622778 0.008889
vt 0.377222 0.254444
vt 0.622778 0.254444
vt 0.377222 0.500000
vt 0.622778 0.500000
vt 0.377222 0.745556
vt 0.622778 0.745556
vt 0.377222 0.991111
vt 0.622778 0.991111
vt 0.868333 0.008889
vt 0.868333 0.254444
vt 0.131667 0.008889
vt 0.131667 0.254444
vn -1.000000 0.000000 -0.000000
vn -1.000000 0.000000 -0.000000
vn -1.000000 0.000000 -0.000000
vn -1.000000 0.000000 -0.000000
vn -0.000000 0.000000 1.000000
vn -0.000000 0.000000 1.000000
vn -0.000000 0.000000 1.000000
vn -0.000000 0.000000 1.000000
vn 1.000000 -0.000000 0.000000
vn 1.000000 -0.000000 0.000000
vn 1.000000 -0.000000 0.000000
vn 1.000000 -0.000000 0.000000
vn 0.000000 -0.000000 -1.000000
vn 0.000000 -0.000000 -1.000000
vn 0.000000 -0.000000 -1.000000
vn 0.000000 -0.000000 -1.000000
vn -0.000000 -1.000000 -0.000000
vn -0.000000 -1.000000 -0.000000
vn -0.000000 -1.000000 -0.000000
vn -0.000000 -1.000000 -0.000000
vn 0.000000 1.000000 0.000000
vn 0.000000 1.000000 0.000000
vn 0.000000 1.000000 0.000000
vn 0.000000 1.000000 0.000000
s 1
g pCube1 SecHand Door1 EntDoors
usemtl blinn16SG
f 1/1/1 2/2/2 3/3/3
f 3/3/3 2/2/2 4/4/4
s 2
f 3/3/5 4/4/6 5/5/7
f 5/5/7 4/4/6 6/6/8
s 3
f 5/5/9 6/6/10 7/7/11
f 7/7/11 6/6/10 8/8/12
s 4
f 7/7/13 8/8/14 1/9/15
f 1/9/15 8/8/14 2/10/16
s 5
f 2/2/17 8/11/18 4/4/19
f 4/4/19 8/11/18 6/12/20
s 6
f 7/13/21 1/1/22 5/14/23
f 5/14/23 1/1/22 3/3/24
